<mxfile host="app.diagrams.net" modified="2021-02-28T23:14:53.454Z" agent="5.0 (Windows NT 10.0; Win64; x64) AppleWebKit/537.36 (KHTML, like Gecko) Chrome/88.0.4324.190 Safari/537.36" etag="QLvRw7ohvJwZi8P0vJ7U" version="14.4.3" type="github">
  <diagram id="sS9FfWFudzhQbV6QdP8D" name="Page-1">
    <mxGraphModel dx="1422" dy="762" grid="1" gridSize="10" guides="1" tooltips="1" connect="1" arrows="1" fold="1" page="1" pageScale="1" pageWidth="1654" pageHeight="1169" math="0" shadow="0">
      <root>
        <mxCell id="0" />
        <mxCell id="1" parent="0" />
        <mxCell id="bFR11mmQNWSabFQQEoEZ-8" style="edgeStyle=orthogonalEdgeStyle;rounded=0;orthogonalLoop=1;jettySize=auto;html=1;entryX=0.5;entryY=1;entryDx=0;entryDy=0;" edge="1" parent="1" source="bFR11mmQNWSabFQQEoEZ-1" target="bFR11mmQNWSabFQQEoEZ-2">
          <mxGeometry relative="1" as="geometry">
            <mxPoint x="450" y="320" as="targetPoint" />
            <Array as="points">
              <mxPoint x="680" y="250" />
              <mxPoint x="330" y="250" />
            </Array>
          </mxGeometry>
        </mxCell>
        <mxCell id="bFR11mmQNWSabFQQEoEZ-1" value="Aszteroidaváltás" style="rounded=1;whiteSpace=wrap;html=1;" vertex="1" parent="1">
          <mxGeometry x="620" y="160" width="120" height="60" as="geometry" />
        </mxCell>
        <mxCell id="bFR11mmQNWSabFQQEoEZ-6" style="edgeStyle=orthogonalEdgeStyle;rounded=0;orthogonalLoop=1;jettySize=auto;html=1;entryX=0;entryY=0.5;entryDx=0;entryDy=0;" edge="1" parent="1" source="bFR11mmQNWSabFQQEoEZ-2" target="bFR11mmQNWSabFQQEoEZ-1">
          <mxGeometry relative="1" as="geometry" />
        </mxCell>
        <mxCell id="bFR11mmQNWSabFQQEoEZ-2" value="Fúrás" style="rounded=1;whiteSpace=wrap;html=1;" vertex="1" parent="1">
          <mxGeometry x="270" y="160" width="120" height="60" as="geometry" />
        </mxCell>
        <mxCell id="bFR11mmQNWSabFQQEoEZ-7" value="kulsoRetegek == 0" style="text;html=1;align=center;verticalAlign=middle;resizable=0;points=[];autosize=1;" vertex="1" parent="1">
          <mxGeometry x="450" y="160" width="120" height="20" as="geometry" />
        </mxCell>
        <mxCell id="bFR11mmQNWSabFQQEoEZ-11" value="&lt;br&gt;" style="html=1;verticalAlign=bottom;startArrow=circle;startFill=1;endArrow=open;startSize=6;endSize=8;entryX=0;entryY=0.5;entryDx=0;entryDy=0;" edge="1" parent="1" target="bFR11mmQNWSabFQQEoEZ-2">
          <mxGeometry x="0.3846" y="20" width="80" relative="1" as="geometry">
            <mxPoint x="140" y="190" as="sourcePoint" />
            <mxPoint x="230" y="200" as="targetPoint" />
            <mxPoint as="offset" />
          </mxGeometry>
        </mxCell>
      </root>
    </mxGraphModel>
  </diagram>
</mxfile>
